<svg width="109" height="31" viewBox="0 0 109 31" fill="none" xmlns="http://www.w3.org/2000/svg">
<path d="M45.2729 22.0894C43.6284 22.2519 40.3833 21.3468 40.2598 23.755C40.2468 24.7495 40.9764 25.4775 42.0684 25.4873C44.1825 25.5068 46.295 25.5068 48.4092 25.4873C49.493 25.4775 50.2568 24.7236 50.2357 23.7567C50.0829 21.3826 46.9125 22.234 45.2729 22.0894ZM59.2479 23.8249C59.2804 21.6377 56.019 21.5662 55.9134 23.7355C55.8842 25.9504 59.1764 26.0625 59.2479 23.8249ZM36.3257 6.71368C36.3647 4.4858 32.9717 4.5313 32.9782 6.69905C33.0107 8.84405 36.3013 8.9058 36.3257 6.71368Z" fill="#FDFDFE"/>
<path d="M0.0313193 24.3774C0.557819 22.8499 1.95207 21.8619 3.60794 22.0196C11.2519 22.0131 18.8959 22.0066 26.5416 22.0017C26.5367 21.7173 26.3222 21.8213 26.2117 21.7807C23.2266 20.7618 23.9838 16.6457 26.9966 16.5774C28.8734 16.4312 30.8364 16.7871 32.6759 16.4133C33.5502 16.1241 32.9961 15.2059 32.9603 14.5641C32.8401 13.1828 33.6379 12.2517 34.9509 12.2192C36.2607 12.1867 37.2568 13.2218 37.1739 14.5511C37.1512 15.2417 36.5402 16.2199 37.5428 16.4523C39.6098 16.6587 41.7873 16.6262 43.8592 16.4686C45.2144 16.1468 44.0688 14.8289 44.3223 13.9303C44.6262 11.5399 48.3929 11.7788 48.4986 14.1172C48.7098 14.9378 47.7267 16.2264 48.9861 16.4799C53.5588 16.7009 58.1657 16.4929 62.7498 16.5563C63.1382 16.5563 63.6923 16.6831 63.8239 16.2492C63.8321 14.7851 56.6479 12.8383 55.1952 12.4662C54.0593 12.1152 52.3531 12.2858 51.9436 10.8834C51.6234 9.8792 52.4684 8.61332 53.5751 8.77257C57.4036 9.42582 61.6351 10.3862 64.2757 13.4623C65.3124 14.7786 65.4181 16.2346 64.8347 17.7377C64.1197 19.5853 61.9796 19.9119 60.2262 19.9038C56.7454 19.9054 53.2647 19.9022 49.7839 19.9071C47.9639 20.0793 46.4738 18.8183 46.5209 16.9268C45.7881 19.5463 45.3054 19.9054 42.5949 19.9054C39.4977 19.7381 35.8756 20.9211 35.0696 16.8683C34.6909 21.0007 30.1913 19.7088 27.2176 19.9054C28.8377 20.1801 30.0451 21.1323 29.9118 22.8889C29.8338 24.0687 28.9563 25.0632 27.7798 25.2696C19.5996 25.5702 11.3819 25.2874 3.18869 25.3817C2.79707 25.3817 2.42494 25.2777 2.42007 25.9391C2.41682 26.4119 1.93744 26.6622 1.48082 26.7759C0.0605691 27.0311 -0.0840557 25.4028 0.0313193 24.3774Z" fill="#030303"/>
<path d="M90.5877 16.5384C91.761 16.5449 92.9342 16.5514 94.1075 16.5612C94.3252 16.5628 94.5933 16.5742 94.699 16.3954C94.8306 16.1744 94.5641 16.0233 94.4373 15.8722C93.1016 14.6729 92.5003 12.5344 93.815 11.0996C95.9551 8.96107 99.0556 11.3628 99.0328 14.0424C99.4846 9.57044 103.692 9.40307 104.192 14.0896C104.264 13.1991 104.296 12.4369 104.496 11.7008C104.88 9.57857 107.704 9.36894 108.326 11.3157C108.279 14.2033 106.284 13.3859 106.919 17.6093C106.628 21.3647 101.777 20.3702 101.734 16.9967C101.358 18.6054 100.747 20.0078 98.7663 19.8632C97.5362 19.7738 96.9317 18.8492 96.4588 16.5872C96.3922 21.3062 91.8633 19.5983 88.6783 19.8859C89.6013 18.9321 90.2318 17.8141 90.5877 16.5384Z" fill="#030303"/>
<path d="M76.6712 0.0463023C77.5812 0.611802 77.8152 1.43892 77.7144 2.46592C77.4934 4.70842 77.3309 6.95905 77.1343 9.20318C76.9994 11.3547 76.6793 13.5679 76.7996 15.6885C76.5184 16.9252 77.2156 18.9353 78.1044 19.8892C63.1203 19.9184 70.5628 21.7271 67.7288 2.44155C67.2299 -0.415199 71.1153 -0.975822 71.1234 2.00768C71.0357 3.32555 70.9106 4.63855 70.7058 5.94505C70.2086 9.11543 69.5797 12.2663 69.2092 15.4578C69.1182 16.2394 69.3587 16.5482 70.1273 16.5547C71.7491 16.5709 73.3724 16.5498 74.9942 16.5677C75.3387 16.5709 75.4183 16.4669 75.4086 16.1338C75.3241 13.5761 75.1518 11.0248 74.9227 8.4768C74.7374 6.41955 74.5749 4.35905 74.3718 2.30342C74.1524 0.847425 75.2314 -0.241323 76.6712 0.0463023Z" fill="#030303"/>
<path d="M12.9761 30.1397C11.3755 29.3483 11.7037 26.8702 13.6017 26.8393C15.8003 26.8084 18.0006 26.8182 20.1992 26.8361C21.86 26.8133 22.5392 29.0184 21.1336 29.9366C21.0572 29.9951 20.9191 29.9967 20.924 30.1397C18.2736 30.1397 15.6248 30.1397 12.9761 30.1397Z" fill="#3E04DA"/>
<path d="M77.9193 19.9639C71.2259 10.5503 92.2241 3.43116 90.9761 16.4588C89.8305 21.0169 84.1479 23.8477 79.9261 21.5434C79.6353 21.4037 79.3314 21.09 79.0519 21.4264C78.6879 21.9643 80.0935 22.0732 79.0876 22.9929C77.8088 24.2702 76.5624 25.5799 75.3371 26.9092C74.7749 27.6177 74.1086 26.9433 73.626 26.537C73.0443 25.9374 73.0508 25.6222 73.6163 25.0209C74.4905 24.3855 77.1035 20.6675 77.8705 21.0267C78.1451 21.207 78.3239 21.0494 78.4783 20.8382C78.709 20.5554 78.059 20.2142 77.9193 19.9639ZM89.694 14.4844C89.9995 10.9695 86.5968 10.196 83.9594 10.8704C80.633 11.561 76.551 15.6024 78.8861 19.0442C82.3636 23.131 89.5055 19.1595 89.694 14.4844Z" fill="#3E04DA"/>
<path d="M45.2729 22.0894C46.9109 22.2341 50.0829 21.3842 50.2373 23.7567C50.2584 24.7236 49.493 25.4776 48.4108 25.4873C46.2967 25.5068 44.1842 25.5068 42.07 25.4873C40.978 25.4776 40.2484 24.7512 40.2614 23.7551C40.3833 21.3452 43.6284 22.2519 45.2729 22.0894Z" fill="#3E04DA"/>
<path d="M59.2479 23.8249C59.1764 26.0625 55.8842 25.9488 55.9134 23.7355C56.019 21.5678 59.2804 21.6377 59.2479 23.8249Z" fill="#3E04DA"/>
<path d="M36.3257 6.71369C36.2997 8.90419 33.009 8.84244 32.9782 6.69744C32.9717 4.53132 36.3663 4.48744 36.3257 6.71369Z" fill="#3E04DA"/>
<path d="M89.6939 14.4844C89.5054 19.1595 82.3635 23.131 78.886 19.0442C76.5525 15.5992 80.6313 11.5626 83.9593 10.8704C86.5966 10.196 89.9978 10.9679 89.6939 14.4844ZM88.3403 14.6355C88.3126 14.2407 88.4605 13.5988 87.9828 13.4509C87.6366 13.368 87.5067 13.6946 87.3685 13.953C87.0305 14.5819 86.6048 15.1507 86.1482 15.6983C85.2138 16.8147 84.1153 17.7523 82.955 18.6217C82.3944 18.8995 82.5666 19.3561 83.1451 19.3919C85.867 19.5901 88.4443 17.1348 88.3403 14.6355Z" fill="#FDFDFE"/>
<path d="M88.0673 14.7965C88.1665 17.1836 85.7013 19.5333 83.0997 19.3432C82.5553 19.3075 82.3733 18.8801 82.9177 18.6071C84.0276 17.7751 85.079 16.8797 85.9711 15.8105C86.4082 15.2872 86.8145 14.7428 87.1378 14.1416C87.2711 13.8946 87.3946 13.5826 87.7245 13.6622C88.1843 13.8036 88.0413 14.4195 88.0673 14.7965Z" fill="#3E04DA"/>
</svg>
